<svg width="178" height="24" viewBox="0 0 178 24" fill="none" xmlns="http://www.w3.org/2000/svg">
<path d="M0 11.0609V8.38495C0 7.32195 0.2 6.31995 0.603 5.37395C1.006 4.43295 1.554 3.61394 2.25 2.91794C2.944 2.22394 3.763 1.67495 4.706 1.27195C5.649 0.868945 6.652 0.668945 7.716 0.668945H9.156C10.22 0.668945 11.223 0.868945 12.167 1.27195C13.11 1.67495 13.929 2.22394 14.623 2.91794C15.317 3.61294 15.867 4.43295 16.269 5.37395C16.672 6.31895 16.873 7.32195 16.873 8.38495V11.0609C16.873 12.1259 16.671 13.1279 16.269 14.0709C15.867 15.0149 15.317 15.8339 14.623 16.5279C13.929 17.2239 13.11 17.7729 12.167 18.1759C11.223 18.5759 10.22 18.7799 9.156 18.7799H7.716C6.653 18.7799 5.649 18.5769 4.706 18.1759C3.763 17.7729 2.944 17.2239 2.25 16.5279C1.555 15.8339 1.006 15.0149 0.603 14.0709C0.2 13.1279 0 12.1259 0 11.0609ZM5.813 12.1679C5.813 12.8869 6.061 13.4969 6.559 13.9929C7.057 14.4919 7.665 14.7389 8.385 14.7389H8.515C9.235 14.7389 9.843 14.4919 10.341 13.9929C10.839 13.4969 11.087 12.8879 11.087 12.1679V7.20394C11.087 6.48194 10.838 5.87295 10.341 5.37395C9.843 4.87695 9.235 4.62895 8.515 4.62895H8.385C7.665 4.62895 7.056 4.87695 6.559 5.37395C6.061 5.87295 5.813 6.48194 5.813 7.20394V12.1679Z" fill="white"/>
<path d="M23.305 7.27914C24.385 5.84014 25.569 5.11914 26.854 5.11914H27.549C28.286 5.11914 28.951 5.30414 29.543 5.67114C30.134 6.04114 30.593 6.52414 30.919 7.12614C31.261 6.52414 31.728 6.04214 32.321 5.67114C32.911 5.30414 33.577 5.11914 34.315 5.11914H35.009C36.072 5.11914 36.979 5.49614 37.736 6.25014C38.49 7.00714 38.868 7.91614 38.868 8.97814V18.5221H33.876V10.1861C33.876 9.75814 33.756 9.41514 33.517 9.15814C33.275 8.90114 32.984 8.77114 32.642 8.77114C32.3 8.77114 32.007 8.90014 31.767 9.15814C31.527 9.41514 31.407 9.75814 31.407 10.1861V18.5221H26.416V10.1861C26.416 9.75814 26.298 9.41514 26.056 9.15814C25.816 8.90114 25.525 8.77114 25.181 8.77114C24.838 8.77114 24.548 8.90014 24.307 9.15814C24.066 9.41514 23.947 9.75814 23.947 10.1861V18.5221H18.957V5.37414H22.765L23.305 7.27914Z" fill="white"/>
<path d="M45.7108 7.27914C46.6708 5.84014 48.0008 5.11914 49.6978 5.11914H50.4178C51.4808 5.11914 52.3908 5.49614 53.1458 6.25014C53.8988 7.00714 54.2768 7.91614 54.2768 8.97814V18.5221H49.1828V10.2901C49.1828 9.86214 49.0508 9.49714 48.7838 9.19614C48.5198 8.89514 48.1978 8.74514 47.8198 8.74514C47.4428 8.74514 47.1208 8.89514 46.8548 9.19614C46.5898 9.49714 46.4578 9.86214 46.4578 10.2901V18.5221H41.3638V5.37414H45.1968L45.7108 7.27914Z" fill="white"/>
<path d="M56.7729 3.678V0H61.8409V3.678H56.7729ZM56.7729 18.522V5.402H61.8409V18.522H56.7729Z" fill="white"/>
<path d="M67.9631 16.592L66.2141 18.522H64.4131V0H69.5061V6.739C70.0371 6.052 70.7671 5.574 71.6931 5.298C72.0531 5.179 72.5161 5.119 73.0831 5.119C73.6471 5.119 74.2301 5.257 74.8321 5.529C75.4321 5.804 75.9551 6.224 76.4021 6.79C77.3791 7.974 77.8681 9.646 77.8681 11.807V12.09C77.8681 14.251 77.3271 15.933 76.2481 17.134C75.2351 18.232 73.8631 18.78 72.1321 18.78C70.3811 18.78 68.9911 18.048 67.9631 16.592ZM69.5071 13.867C69.5071 14.363 69.6621 14.787 69.9701 15.139C70.2781 15.491 70.6561 15.665 71.1021 15.665C71.5471 15.665 71.9241 15.49 72.2331 15.139C72.5431 14.786 72.6971 14.363 72.6971 13.867V10.136C72.6971 9.638 72.5431 9.216 72.2331 8.864C71.9231 8.512 71.5471 8.334 71.1021 8.334C70.6561 8.334 70.2781 8.511 69.9701 8.863C69.6621 9.215 69.5071 9.638 69.5071 10.135V13.867Z" fill="white"/>
<path d="M94.383 18.187C93.766 18.581 92.891 18.78 91.76 18.78C90.627 18.78 89.779 18.593 89.211 18.224C88.647 17.857 88.243 17.346 88.004 16.695C87.472 17.485 86.681 18.093 85.637 18.522C85.241 18.694 84.812 18.78 84.351 18.78H83.63C82.566 18.78 81.658 18.4 80.902 17.647C80.148 16.893 79.771 15.983 79.771 14.92V5.37402H84.865V13.609C84.865 14.036 84.999 14.402 85.264 14.701C85.529 15.002 85.85 15.149 86.229 15.149C86.606 15.149 86.925 15.002 87.192 14.701C87.457 14.402 87.59 14.036 87.59 13.609V5.37402H92.682V14.714C92.682 15.057 92.77 15.303 92.942 15.446C93.112 15.592 93.318 15.665 93.557 15.665C93.796 15.665 94.074 15.588 94.381 15.434V18.187H94.383Z" fill="white"/>
<path d="M102.075 8.15509C100.804 8.15509 100.172 8.40309 100.172 8.90109C100.172 9.20909 100.377 9.42409 100.79 9.54509C101.2 9.66409 101.709 9.75809 102.319 9.82809C102.927 9.89709 103.589 9.98109 104.3 10.0851C105.011 10.1871 105.666 10.3771 106.266 10.6501C107.706 11.3211 108.427 12.4851 108.427 14.1481C108.427 15.7611 107.794 16.9701 106.525 17.7781C105.444 18.4451 104.048 18.7811 102.332 18.7811H100.993C99.4851 18.7811 98.1881 18.4551 97.1081 17.8021C95.9061 17.0491 95.3091 16.0101 95.3091 14.6911V14.4601C95.3091 14.3931 95.3161 14.3151 95.3351 14.2291H99.5011V14.3321C99.5011 14.8111 99.7581 15.1741 100.272 15.4121C100.65 15.5831 101.131 15.6691 101.713 15.6691C103.171 15.6691 103.9 15.4031 103.9 14.8731C103.9 14.5471 103.699 14.3181 103.296 14.1911C102.893 14.0611 102.387 13.9541 101.777 13.8701C101.167 13.7821 100.51 13.6811 99.8101 13.5601C99.1071 13.4391 98.4441 13.2431 97.8291 12.9681C96.4221 12.2971 95.7171 11.1591 95.7171 9.54709C95.7171 8.10509 96.3871 6.97309 97.7261 6.15009C98.8571 5.46409 100.201 5.12109 101.764 5.12109H102.561C103.898 5.12109 105.116 5.40409 106.213 5.97009C107.5 6.63909 108.144 7.53009 108.144 8.64409L108.118 9.13309C108.102 9.20409 108.09 9.26109 108.09 9.31309H103.873C103.873 8.71409 103.469 8.34509 102.665 8.20909C102.442 8.17209 102.245 8.15509 102.075 8.15509Z" fill="white"/>
<path d="M112.443 13.479V9.41504H118.975V13.479H112.443Z" fill="white"/>
<path d="M119.593 5.11905V0.873047H133.895V5.11905H129.418V18.522H124.067V5.11905H119.593Z" fill="white"/>
<path d="M134.356 19.629C134.888 19.866 135.446 19.987 136.029 19.987C136.596 19.987 137.003 19.922 137.253 19.794C137.499 19.666 137.692 19.499 137.831 19.293C138.036 19.02 138.191 18.633 138.294 18.136L133.456 5.37402H138.884L140.917 12.193H141.125L142.848 5.37402H147.865L143.44 17.594C142.48 20.288 141.038 22.055 139.117 22.895C138.431 23.185 137.607 23.333 136.646 23.333C135.669 23.333 134.911 23.202 134.357 22.945V19.629H134.356Z" fill="white"/>
<path d="M154.166 17.1591V23.1781H149.07V5.37414H153.137L153.598 6.89414C154.51 5.71014 155.615 5.11914 156.916 5.11914C158.565 5.11914 159.893 5.67714 160.904 6.79014C161.985 7.97414 162.526 9.64614 162.526 11.8071V12.0901C162.526 14.2511 162.036 15.9331 161.058 17.1341C160.167 18.2321 158.966 18.7801 157.456 18.7801C155.932 18.7801 154.837 18.2371 154.166 17.1591ZM154.166 13.7631C154.166 14.2591 154.32 14.6851 154.629 15.0351C154.937 15.3871 155.317 15.5631 155.763 15.5631C156.206 15.5631 156.583 15.3861 156.891 15.0351C157.202 14.6841 157.356 14.2591 157.356 13.7631V10.0311C157.356 9.53514 157.202 9.11214 156.891 8.76014C156.583 8.40614 156.206 8.23014 155.763 8.23014C155.317 8.23014 154.937 8.40714 154.629 8.76014C154.32 9.11214 154.166 9.53514 154.166 10.0311V13.7631Z" fill="white"/>
<path d="M163.942 12.3481V11.5501C163.942 9.54514 164.601 7.95914 165.921 6.79014C167.173 5.67614 168.854 5.11914 170.965 5.11914H171.609C173.597 5.11914 175.166 5.67714 176.316 6.79014C177.413 7.87114 177.962 9.28614 177.962 11.0361V12.6301H169.397V13.8671C169.397 14.4671 169.59 14.9171 169.976 15.2181C170.363 15.5171 170.844 15.6661 171.429 15.6661C172.011 15.6661 172.457 15.4781 172.767 15.1011C173.074 14.7241 173.228 14.2191 173.228 13.5831H177.935C177.935 15.0921 177.379 16.3281 176.263 17.2871C175.097 18.2811 173.52 18.7801 171.533 18.7801H171.145C169.036 18.7801 167.33 18.2211 166.026 17.1061C164.637 15.9241 163.942 14.3371 163.942 12.3481ZM169.396 10.3921H172.945V10.0311C172.945 9.53514 172.774 9.11214 172.429 8.76014C172.088 8.40614 171.668 8.23014 171.169 8.23014C170.673 8.23014 170.252 8.40714 169.909 8.76014C169.564 9.11214 169.395 9.53514 169.395 10.0311V10.3921H169.396Z" fill="white"/>
</svg>
